<mxfile host="65bd71144e">
    <diagram id="sIdQAXroVL14RH3N-jtN" name="Page-1">
        <mxGraphModel dx="2812" dy="1528" grid="1" gridSize="10" guides="1" tooltips="1" connect="1" arrows="1" fold="1" page="1" pageScale="1" pageWidth="827" pageHeight="1169" math="0" shadow="0">
            <root>
                <mxCell id="0"/>
                <mxCell id="1" parent="0"/>
                <mxCell id="41" value="" style="edgeStyle=none;sketch=1;hachureGap=4;jiggle=2;curveFitting=1;html=1;fontFamily=Architects Daughter;fontSource=https%3A%2F%2Ffonts.googleapis.com%2Fcss%3Ffamily%3DArchitects%2BDaughter;fontSize=17;entryX=0.5;entryY=0;entryDx=0;entryDy=0;fillColor=none;" edge="1" parent="1" source="2" target="3">
                    <mxGeometry relative="1" as="geometry"/>
                </mxCell>
                <mxCell id="2" value="Start" style="ellipse;whiteSpace=wrap;html=1;sketch=1;curveFitting=1;jiggle=2;fillColor=none;shadow=0;fontSize=17;" parent="1" vertex="1">
                    <mxGeometry x="-45" y="120" width="100" height="60" as="geometry"/>
                </mxCell>
                <mxCell id="43" value="" style="edgeStyle=none;sketch=1;hachureGap=4;jiggle=2;curveFitting=1;html=1;fontFamily=Architects Daughter;fontSource=https%3A%2F%2Ffonts.googleapis.com%2Fcss%3Ffamily%3DArchitects%2BDaughter;fontSize=17;fillColor=none;" edge="1" parent="1" source="3" target="4">
                    <mxGeometry relative="1" as="geometry"/>
                </mxCell>
                <mxCell id="3" value="Receive Inputs: &#10;North, East, West, South Vehicles" style="rounded=1;whiteSpace=wrap;html=1;sketch=1;curveFitting=1;jiggle=2;fillColor=none;shadow=0;fontSize=17;" parent="1" vertex="1">
                    <mxGeometry x="-120" y="200" width="250" height="70" as="geometry"/>
                </mxCell>
                <mxCell id="45" value="" style="edgeStyle=none;sketch=1;hachureGap=4;jiggle=2;curveFitting=1;html=1;fontFamily=Architects Daughter;fontSource=https%3A%2F%2Ffonts.googleapis.com%2Fcss%3Ffamily%3DArchitects%2BDaughter;fontSize=17;fillColor=none;" edge="1" parent="1" source="4" target="5">
                    <mxGeometry relative="1" as="geometry"/>
                </mxCell>
                <mxCell id="4" value="Calculate Average Density:&#10; (N+E+W+S) / 4" style="rounded=1;whiteSpace=wrap;html=1;sketch=1;curveFitting=1;jiggle=2;fillColor=none;shadow=0;fontSize=17;" parent="1" vertex="1">
                    <mxGeometry x="-120" y="300" width="250" height="70" as="geometry"/>
                </mxCell>
                <mxCell id="5" value="Is Avg Density &amp;gt; 8?" style="rhombus;whiteSpace=wrap;html=1;sketch=1;curveFitting=1;jiggle=2;fillColor=none;shadow=0;fontSize=17;" parent="1" vertex="1">
                    <mxGeometry x="-120" y="390" width="250" height="120" as="geometry"/>
                </mxCell>
                <mxCell id="26" value="" style="edgeStyle=none;sketch=1;hachureGap=4;jiggle=2;curveFitting=1;html=1;fontFamily=Architects Daughter;fontSource=https%3A%2F%2Ffonts.googleapis.com%2Fcss%3Ffamily%3DArchitects%2BDaughter;fontSize=17;fillColor=none;" parent="1" source="6" target="7" edge="1">
                    <mxGeometry relative="1" as="geometry"/>
                </mxCell>
                <mxCell id="6" value="High-Density Algorithm" style="rounded=1;whiteSpace=wrap;html=1;sketch=1;curveFitting=1;jiggle=2;fillColor=none;shadow=0;fontSize=17;" parent="1" vertex="1">
                    <mxGeometry x="260" y="500" width="250" height="100" as="geometry"/>
                </mxCell>
                <mxCell id="28" value="" style="edgeStyle=none;sketch=1;hachureGap=4;jiggle=2;curveFitting=1;html=1;fontFamily=Architects Daughter;fontSource=https%3A%2F%2Ffonts.googleapis.com%2Fcss%3Ffamily%3DArchitects%2BDaughter;fontSize=17;entryX=0.5;entryY=0;entryDx=0;entryDy=0;fillColor=none;" parent="1" source="7" target="8" edge="1">
                    <mxGeometry relative="1" as="geometry">
                        <mxPoint x="385" y="870" as="targetPoint"/>
                    </mxGeometry>
                </mxCell>
                <mxCell id="7" value="Find Max Density: Max(N, E, S, W)" style="rounded=1;whiteSpace=wrap;html=1;sketch=1;curveFitting=1;jiggle=2;fillColor=none;shadow=0;fontSize=17;" parent="1" vertex="1">
                    <mxGeometry x="260" y="640" width="250" height="80" as="geometry"/>
                </mxCell>
                <mxCell id="36" value="" style="edgeStyle=none;sketch=1;hachureGap=4;jiggle=2;curveFitting=1;html=1;fontFamily=Helvetica;fontSize=17;entryX=1;entryY=0.5;entryDx=0;entryDy=0;fillColor=none;" parent="1" source="8" target="33" edge="1">
                    <mxGeometry relative="1" as="geometry">
                        <mxPoint x="385" y="930" as="targetPoint"/>
                        <Array as="points">
                            <mxPoint x="385" y="890"/>
                        </Array>
                    </mxGeometry>
                </mxCell>
                <mxCell id="8" value="Give first prority to lane with maximum number of vehicles" style="rounded=1;whiteSpace=wrap;html=1;sketch=1;curveFitting=1;jiggle=2;fillColor=none;shadow=0;fontSize=17;" parent="1" vertex="1">
                    <mxGeometry x="260" y="760" width="250" height="80" as="geometry"/>
                </mxCell>
                <mxCell id="30" value="" style="edgeStyle=none;sketch=1;hachureGap=4;jiggle=2;curveFitting=1;html=1;fontFamily=Architects Daughter;fontSource=https%3A%2F%2Ffonts.googleapis.com%2Fcss%3Ffamily%3DArchitects%2BDaughter;fontSize=17;fillColor=none;" parent="1" source="9" target="10" edge="1">
                    <mxGeometry relative="1" as="geometry"/>
                </mxCell>
                <mxCell id="9" value="Low-Density Algorithm" style="rounded=1;whiteSpace=wrap;html=1;sketch=1;curveFitting=1;jiggle=2;fillColor=none;shadow=0;fontSize=17;" parent="1" vertex="1">
                    <mxGeometry x="-460" y="500" width="250" height="100" as="geometry"/>
                </mxCell>
                <mxCell id="29" value="" style="edgeStyle=none;sketch=1;hachureGap=4;jiggle=2;curveFitting=1;html=1;fontFamily=Architects Daughter;fontSource=https%3A%2F%2Ffonts.googleapis.com%2Fcss%3Ffamily%3DArchitects%2BDaughter;fontSize=17;fillColor=none;" parent="1" source="10" target="11" edge="1">
                    <mxGeometry relative="1" as="geometry"/>
                </mxCell>
                <mxCell id="10" value="Find Min Density: Min(N, E, S, W)" style="rounded=1;whiteSpace=wrap;html=1;sketch=1;curveFitting=1;jiggle=2;fillColor=none;shadow=0;fontSize=17;" parent="1" vertex="1">
                    <mxGeometry x="-460" y="640" width="250" height="80" as="geometry"/>
                </mxCell>
                <mxCell id="23" value="" style="edgeStyle=none;sketch=1;hachureGap=4;jiggle=2;curveFitting=1;html=1;fontFamily=Architects Daughter;fontSource=https%3A%2F%2Ffonts.googleapis.com%2Fcss%3Ffamily%3DArchitects%2BDaughter;fontSize=17;entryX=0;entryY=0.5;entryDx=0;entryDy=0;fillColor=none;" parent="1" source="11" target="33" edge="1">
                    <mxGeometry relative="1" as="geometry">
                        <mxPoint x="-335.0000000000002" y="880" as="targetPoint"/>
                        <Array as="points">
                            <mxPoint x="-330" y="900"/>
                        </Array>
                    </mxGeometry>
                </mxCell>
                <mxCell id="11" value="Give first prority to lane with minimum number of vehicles" style="rounded=1;whiteSpace=wrap;html=1;sketch=1;curveFitting=1;jiggle=2;fillColor=none;shadow=0;fontSize=17;" parent="1" vertex="1">
                    <mxGeometry x="-460" y="760" width="250" height="80" as="geometry"/>
                </mxCell>
                <mxCell id="34" value="" style="edgeStyle=none;sketch=1;hachureGap=4;jiggle=2;curveFitting=1;html=1;fontFamily=Architects Daughter;fontSource=https%3A%2F%2Ffonts.googleapis.com%2Fcss%3Ffamily%3DArchitects%2BDaughter;fontSize=17;fillColor=none;" parent="1" source="12" target="33" edge="1">
                    <mxGeometry relative="1" as="geometry"/>
                </mxCell>
                <mxCell id="12" value="Default Algorithm" style="rounded=1;whiteSpace=wrap;html=1;sketch=1;curveFitting=1;jiggle=2;fillColor=none;shadow=0;fontSize=17;" parent="1" vertex="1">
                    <mxGeometry x="-125" y="640" width="250" height="80" as="geometry"/>
                </mxCell>
                <mxCell id="13" value="decide time for other lanes in proportion of vehicles" style="rounded=1;whiteSpace=wrap;html=1;sketch=1;curveFitting=1;jiggle=2;fillColor=none;shadow=0;fontSize=17;" parent="1" vertex="1">
                    <mxGeometry x="-125" y="1179" width="250" height="80" as="geometry"/>
                </mxCell>
                <mxCell id="14" value="Output Phase Timings (N, E, S, W)" style="rounded=1;whiteSpace=wrap;html=1;sketch=1;curveFitting=1;jiggle=2;fillColor=none;shadow=0;fontSize=17;" parent="1" vertex="1">
                    <mxGeometry x="-125" y="1360" width="250" height="70" as="geometry"/>
                </mxCell>
                <mxCell id="15" value="End" style="ellipse;whiteSpace=wrap;html=1;sketch=1;curveFitting=1;jiggle=2;fillColor=none;shadow=0;fontSize=17;" parent="1" vertex="1">
                    <mxGeometry x="-50" y="1500" width="100" height="60" as="geometry"/>
                </mxCell>
                <mxCell id="16" value="YES" style="edgeStyle=none;sketch=1;jiggle=2;fillColor=none;shadow=0;fontSize=17;" parent="1" source="5" target="6" edge="1">
                    <mxGeometry relative="1" as="geometry"/>
                </mxCell>
                <mxCell id="17" value="NO" style="edgeStyle=none;sketch=1;jiggle=2;fillColor=none;shadow=0;fontSize=17;" parent="1" source="5" target="9" edge="1">
                    <mxGeometry relative="1" as="geometry"/>
                </mxCell>
                <mxCell id="18" value="if any error in algorithm" style="edgeStyle=none;sketch=1;jiggle=2;fillColor=none;shadow=0;fontSize=17;entryX=0.52;entryY=0.375;entryDx=0;entryDy=0;entryPerimeter=0;" parent="1" source="5" target="12" edge="1">
                    <mxGeometry x="0.0769" y="-5" relative="1" as="geometry">
                        <mxPoint y="1" as="offset"/>
                    </mxGeometry>
                </mxCell>
                <mxCell id="20" style="edgeStyle=none;sketch=1;jiggle=2;fillColor=none;shadow=0;fontSize=17;" parent="1" source="13" target="14" edge="1">
                    <mxGeometry relative="1" as="geometry"/>
                </mxCell>
                <mxCell id="21" style="edgeStyle=none;sketch=1;jiggle=2;fillColor=none;shadow=0;fontSize=17;" parent="1" source="14" target="15" edge="1">
                    <mxGeometry relative="1" as="geometry"/>
                </mxCell>
                <mxCell id="39" value="if yes&amp;nbsp;" style="edgeStyle=none;sketch=1;hachureGap=4;jiggle=2;curveFitting=1;html=1;fontFamily=Helvetica;fontSize=17;fillColor=none;" parent="1" source="33" target="38" edge="1">
                    <mxGeometry relative="1" as="geometry"/>
                </mxCell>
                <mxCell id="33" value="if vehicle at any lane is 0" style="rhombus;whiteSpace=wrap;html=1;fontSize=17;fillColor=none;rounded=1;sketch=1;curveFitting=1;jiggle=2;shadow=0;hachureGap=4;fontFamily=Helvetica;" parent="1" vertex="1">
                    <mxGeometry x="-160" y="840" width="330" height="110" as="geometry"/>
                </mxCell>
                <mxCell id="40" value="" style="edgeStyle=none;sketch=1;hachureGap=4;jiggle=2;curveFitting=1;html=1;fontFamily=Helvetica;fontSize=17;fillColor=none;" parent="1" source="38" target="13" edge="1">
                    <mxGeometry relative="1" as="geometry"/>
                </mxCell>
                <mxCell id="38" value="&lt;font face=&quot;Helvetica&quot; style=&quot;font-size: 17px;&quot;&gt;skip that lane&amp;nbsp;&lt;/font&gt;" style="whiteSpace=wrap;html=1;fontSize=17;fillColor=none;rounded=1;sketch=1;curveFitting=1;jiggle=2;shadow=0;hachureGap=4;fontFamily=Architects Daughter;fontSource=https%3A%2F%2Ffonts.googleapis.com%2Fcss%3Ffamily%3DArchitects%2BDaughter;" parent="1" vertex="1">
                    <mxGeometry x="-55" y="1055" width="120" height="60" as="geometry"/>
                </mxCell>
            </root>
        </mxGraphModel>
    </diagram>
</mxfile>